<svg version="1.1" xmlns="http://www.w3.org/2000/svg" xmlns:xlink="http://www.w3.org/1999/xlink" width="1010px" height="811.666px" viewBox="0,0,256,205.71875"><g fill="#ffaf0e" fill-rule="nonzero" stroke="none" stroke-width="1" stroke-linecap="butt" stroke-linejoin="miter" stroke-miterlimit="10" stroke-dasharray="" stroke-dashoffset="0" font-family="none" font-weight="none" font-size="none" text-anchor="none" style="mix-blend-mode: normal"><g transform="translate(0,-0.00523) scale(0.25347,0.25347)"><g id="graph-9-graph-9"><path d="M62.1182,749.5273v-658.1274h-62.1182v658.1274v62.1387h62.1182h947.8818v-62.1387z"></path><path d="M247.0752,400.3672c0,-23.7129 -19.398,-43.1519 -43.1519,-43.1519h-53.9194c-23.7026,0 -43.0898,19.439 -43.0898,43.1519v308.4326h140.1611z"></path><path d="M373.0479,270.9116c-23.7027,0 -43.1211,19.3975 -43.1211,43.1519v394.7363h140.1201v-394.7363c0,-23.7544 -19.3565,-43.1519 -43.1109,-43.1519z"></path><path d="M596.0508,357.2153c-23.7129,0 -43.1524,19.439 -43.1524,43.1519v308.4326h140.1621v-308.4326c0,-23.7129 -19.3574,-43.1519 -43.0908,-43.1519z"></path><path d="M872.9619,184.5669h-53.9189c-23.713,0 -43.1309,19.439 -43.1309,43.1518v481.0811h140.1817v-481.0811c0,-23.7128 -19.3985,-43.1518 -43.1319,-43.1518z"></path><path d="M199.1357,302.145l205.8648,-165.456l189.2212,169.0727c4.1103,3.6577 9.2471,5.4658 14.4043,5.4658c5.4043,0 10.7881,-2.0136 14.9599,-6.041l229.1563,-221.2661l46.0898,46.0283h11.918v-129.9487h-129.9687v11.9184l41.4667,41.4668l-214.2177,206.8414l-187.9058,-167.9224c-7.8906,-7.0689 -19.6548,-7.3565 -27.915,-0.7398l-220.0952,176.9634c-9.3086,7.48 -10.7984,21.0415 -3.3394,30.3706c7.5005,9.2471 21.0728,10.7266 30.3608,3.2466z"></path></g></g></g></svg>